# AST/ASF file generated using VICON BodyLanguage
# -----------------------------------------------
:version 1.10
:name VICON
:units
  mass 1.0
  length 0.45
  angle deg
:documentation
   .ast/.asf automatically generated from VICON data using
   VICON BodyBuilder and BodyLanguage model FoxedUp or BRILLIANT.MOD
:root
   order TX TY TZ RX RY RZ
   axis XYZ
   position 0 0 0  
   orientation 0 0 0 
:bonedata
  begin
     id 1 
     name lhipjoint
     direction 0.589753 -0.68606 0.426044 
     length 2.54082 
     axis 0 0 0  XYZ
  end
  begin
     id 2 
     name lfemur
     direction 0.34202 -0.939693 0  
     length 7.04539  
     axis 0 0 20  XYZ
    dof rx ry rz
    limits (-160.0 20.0)
           (-70.0 70.0)
           (-60.0 70.0)
  end
  begin
     id 3 
     name ltibia
     direction 0.34202 -0.939693 0   
     length 7.83772   
     axis 0 0 20   XYZ
    dof rx
    limits (-10.0 170.0)
  end
  begin
     id 4 
     name lfoot
     direction 0.0596604 -0.163915 0.984669   
     length 2.39542   
     axis -90 7.62852e-016 20   XYZ
    dof rx rz
    limits (-45.0 90.0)
           (-70.0 20.0)
  end
  begin
     id 5 
     name ltoes
     direction 1.53514e-011 -4.21954e-011 1   
     length 1.2047   
     axis -90 7.62852e-016 20   XYZ
    dof rx
    limits (-90.0 20.0)
  end
  begin
     id 6 
     name rhipjoint
     direction -0.580585 -0.69168 0.429534   
     length 2.52018  
     axis 0 0 0  XYZ 
  end
  begin
     id 7 
     name rfemur
     direction -0.34202 -0.939693 0   
     length 7.0101   
     axis 0 0 -20   XYZ
    dof rx ry rz
    limits (-160.0 20.0)
           (-70.0 70.0)
           (-70.0 60.0)
  end
  begin
     id 8 
     name rtibia
     direction -0.34202 -0.939693 0   
     length 7.70628   
     axis 0 0 -20   XYZ
    dof rx
    limits (-10.0 170.0)
 end
 begin
     id 9 
     name rfoot
     direction -0.0696237 -0.19129 0.979061   
     length 2.52466  
     axis -90 -7.62852e-016 -20   XYZ
    dof rx rz
    limits (-45.0 90.0)
           (-20.0 70.0)
  end
  begin
     id 10 
     name rtoes
     direction -1.53519e-011 -4.21793e-011 1   
     length 1.266   
     axis -90 -7.62852e-016 -20   XYZ
    dof rx
    limits (-90.0 20.0)
  end
  begin
     id 11 
     name lowerback
     direction 0.00381965 0.995707 -0.0924856   
     length 2.20825   
     axis 0 0 0   XYZ
    dof rx ry rz
    limits (-20.0 45.0)
           (-30.0 30.0)
           (-30.0 30.0)
  end
  begin
     id 12 
     name upperback
     direction -0.0139043 0.999634 -0.0231929   
     length 2.21517   
     axis 0 0 0   XYZ
    dof rx ry rz
    limits (-20.0 45.0)
           (-30.0 30.0)
           (-30.0 30.0)
  end
  begin
     id 13 
     name thorax
     direction -0.0143933 0.999691 0.0202892   
     length 2.22911   
     axis 0 0 0   XYZ
    dof rx ry rz
    limits (-20.0 45.0)
           (-30.0 30.0)
           (-30.0 30.0)
  end
  begin
     id 14 
     name lowerneck
     direction -0.0251153 0.981819 0.188153   
     length 1.61782   
     axis 0 0 0   XYZ
    dof rx ry rz
    limits (-20.0 45.0)
           (-30.0 30.0)
           (-30.0 30.0)
  end
  begin
     id 15 
     name upperneck
     direction 0.0563891 0.969357 -0.239095   
     length 1.64526   
     axis 0 0 0   XYZ
    dof rx ry rz
    limits (-20.0 45.0)
           (-30.0 30.0)
           (-30.0 30.0)
  end
  begin
     id 16
     name head
     direction 0.0208328 0.99459 -0.101773  
     length 1.67436  
     axis 0 0 0   XYZ
    dof rx ry rz
    limits (-20.0 45.0)
           (-30.0 30.0)
           (-30.0 30.0)
  end
  begin
     id 17 
     name lclavicle
     direction 0.917689 0.397224 0.00772059  
     length 3.31102  
     axis 0 0 0   XYZ
    dof ry rz
    limits (-20.0 10.0)
           (0.0 20.0)
  end
  begin
     id 18 
     name lhumerus
     direction 1 -4.4896e-011 2.32308e-027   
     length 5.25537   
     axis 180 -30 -90   XYZ
    dof rx ry rz
    limits (-60.0 90.0)
           (-90.0 90.0)
           (-90.0 90.0)
  end
  begin
     id 19
     name lradius
     direction 1 -4.49005e-011 -2.04271e-027   
     length 3.38855   
     axis 180 -30 -90   XYZ
    dof rx
    limits (-10.0 170.0)
  end
  begin
     id 20
     name lwrist
     direction 1 -4.48892e-011 2.56952e-028   
     length 1.69428   
     axis -5.12785e-016 90 90   XYZ
    dof ry
    limits (-180.0 0.0)
 end
  begin
     id 21 
     name lhand
     direction 1 -4.48966e-011 5.13905e-028   
     length 0.614516   
     axis -3.27915e-016 90 90   XYZ
    dof rx rz
    limits (-90.0 90.0)
           (-45.0 45.0)
  end
  begin
     id 22 
     name lfingers
     direction 1 -4.48979e-011 1.02781e-027   
     length 0.495439   
     axis -6.5583e-016 90 90   XYZ
    dof rx
    limits (0.0 90.0)
  end
  begin
     id 23
     name lthumb
     direction 0.707107 -6.35001e-011 0.707107   
     length 0.711354   
     axis -90 45 2.85299e-015   XYZ
    dof rx rz
    limits (-45.0 45.0)
           (-45.0 45.0)
  end
  begin
     id 24 
     name rclavicle
     direction -0.938556 0.342765 -0.0403177   
     length 3.27019  
     axis 0 0 0   XYZ 
    dof ry rz
    limits (-10.0 20.0)
           (-20.0 0.0)
  end
  begin
     id 25 
     name rhumerus
     direction -1 -4.48966e-011 2.52291e-027  
     length 5.38183   
     axis 180 30 90   XYZ
    dof rx ry rz
    limits (-90.0 60.0)
           (-90.0 90.0)
           (-90.0 90.0)
  end
  begin
     id 26 
     name rradius
     direction -1 -4.4896e-011 1.5797e-027   
     length 3.16988   
     axis 180 30 90   XYZ
    dof rx
    limits (-10.0 170.0)
  end
  begin
     id 27 
     name rwrist
     direction -1 -4.48947e-011 2.56952e-028   
     length 1.58494   
     axis -5.12785e-016 -90 -90   XYZ
    dof ry
    limits (-180.0 0.0)
  end
  begin
     id 28
     name rhand
     direction -1 -4.49098e-011 5.13905e-028   
     length 0.637679   
     axis -3.27915e-016 -90 -90   XYZ
    dof rx rz
    limits (-90.0 90.0)
           (-45.0 45.0)
  end
  begin
     id 29
     name rfingers
     direction -1 -4.49026e-011 1.02781e-027   
     length 0.514113   
     axis -6.5583e-016 -90 -90   XYZ
    dof rx
    limits (0.0 90.0)
  end
  begin
     id 30
     name rthumb
     direction -0.707107 -6.3491e-011 0.707107   
     length 0.738167   
     axis -90 -45 -2.85299e-015   XYZ
    dof rx rz
    limits (-45.0 45.0)
           (-45.0 45.0)
  end
:hierarchy
  begin
    root lhipjoint rhipjoint lowerback
    lhipjoint lfemur
    lfemur ltibia
    ltibia lfoot
    lfoot ltoes
    rhipjoint rfemur
    rfemur rtibia
    rtibia rfoot
    rfoot rtoes
    lowerback upperback
    upperback thorax
    thorax lowerneck lclavicle rclavicle
    lowerneck upperneck
    upperneck head
    lclavicle lhumerus
    lhumerus lradius
    lradius lwrist
    lwrist lhand lthumb
    lhand lfingers
    rclavicle rhumerus
    rhumerus rradius
    rradius rwrist
    rwrist rhand rthumb
    rhand rfingers
  end

#!OML:ASF H:\Swim\Project 1\Capture day 1\Session 1\swimmer.ASF
:FULLY-SPECIFIED
:DEGREES
3608
root 4.44937 11.5835 6.74405 63.0428 -1.72232 -1.6169
lowerback 21.6028 -0.853506 -1.14431
upperback 3.87242 -1.60174 -2.82328
thorax -7.8911 -0.758941 -1.97477
lowerneck -18.2932 -5.8885 -13.3842
upperneck -1.53787 -5.97359 17.7352
head 3.54035 -2.21906 7.28453
rclavicle -2.38542e-015 1.22253e-014
rhumerus 39.9306 44.6905 12.5671
rradius 102.049
rwrist -37.1588
rhand -29.091 14.7377
rfingers 7.12502
rthumb -2.43962 -15.228
lclavicle -2.38542e-015 1.22253e-014
lhumerus 34.2977 -38.4848 -8.81994
lradius 99.0871
lwrist 21.6326
lhand -33.545 -350.717
lfingers 7.12502
lthumb -6.74034 -680.844
rfemur -18.3269 0.287933 20.1806
rtibia 52.0528
rfoot -21.8513 -3.72101
rtoes -24.2545
lfemur -19.4294 2.08096 -22.7205
ltibia 57.9686
lfoot -1.35875 -4.26028
ltoes 1.12851
3609
root 4.45428 11.5775 6.74556 62.3946 -1.75595 -1.62925
lowerback 21.8327 -0.805394 -1.18223
upperback 3.84102 -1.55439 -2.80119
thorax -8.04446 -0.735251 -1.94114
lowerneck -18.3356 -5.87804 -13.2367
upperneck -1.58814 -5.97243 17.6008
head 3.51983 -2.22308 7.21415
rclavicle 1.19271e-014 2.56432e-014
rhumerus 39.9988 45.0875 12.2594
rradius 103.123
rwrist -37.1815
rhand -29.3455 14.6075
rfingers 7.12502
rthumb -2.68541 -15.3554
lclavicle 1.19271e-014 2.56432e-014
lhumerus 34.471 -38.927 -8.6257
lradius 100.284
lwrist 21.5721
lhand -33.7509 -350.691
lfingers 7.12502
lthumb -6.93911 -680.825
rfemur -18.1968 -0.0627161 20.0115
rtibia 52.193
rfoot -21.5529 -3.61115
rtoes -24.8794
lfemur -19.3757 2.16907 -22.675
ltibia 58.4795
lfoot -1.09885 -4.44533
ltoes 0.987323
3610
root 4.45913 11.5715 6.74783 61.7615 -1.79403 -1.64233
lowerback 22.0403 -0.760957 -1.22483
upperback 3.81292 -1.5125 -2.78208
thorax -8.18261 -0.714032 -1.9069
lowerneck -18.4 -5.86835 -13.0923
upperneck -1.62514 -5.97085 17.4658
head 3.50663 -2.22568 7.14415
rclavicle -3.33958e-014 -2.92213e-014
rhumerus 40.0543 45.4512 11.8867
rradius 104.155
rwrist -37.208
rhand -29.6553 14.5043
rfingers 7.12502
rthumb -2.98455 -15.4546
lclavicle -3.33958e-014 -2.92213e-014
lhumerus 34.6131 -39.3043 -8.38988
lradius 101.473
lwrist 21.4977
lhand -33.9556 -350.662
lfingers 7.12502
lthumb -7.1367 -680.803
rfemur -18.096 -0.290908 19.863
rtibia 52.3459
rfoot -21.2436 -3.55662
rtoes -25.4351
lfemur -19.381 2.25293 -22.637
ltibia 59.0288
lfoot -0.861313 -4.62374
ltoes 0.784427
3611
root 4.46394 11.5647 6.74844 61.1493 -1.82465 -1.65907
lowerback 22.2236 -0.713437 -1.27001
upperback 3.78529 -1.466 -2.75546
thorax -8.30705 -0.69048 -1.8646
lowerneck -18.4794 -5.85668 -12.9344
upperneck -1.65156 -5.96728 17.2972
head 3.49626 -2.22788 7.06094
rclavicle -4.77083e-015 -9.93923e-015
rhumerus 40.0677 45.7784 11.4661
rradius 105.156
rwrist -37.218
rhand -30.0151 14.4565
rfingers 7.12502
rthumb -3.33202 -15.4972
lclavicle -4.77083e-015 -9.93923e-015
lhumerus 34.7405 -39.6631 -8.06083
lradius 102.618
lwrist 21.3724
lhand -34.1844 -350.602
lfingers 7.12502
lthumb -7.3576 -680.75
rfemur -18.0423 -0.289196 19.7694
rtibia 52.5337
rfoot -20.9755 -3.57254
rtoes -25.842
lfemur -19.4708 2.33071 -22.5938
ltibia 59.6532
lfoot -0.664647 -4.80546
ltoes 0.522266
3612
root 4.46845 11.556 6.74361 60.5643 -1.85284 -1.66788
lowerback 22.3779 -0.658984 -1.32516
upperback 3.75594 -1.41217 -2.72758
thorax -8.41772 -0.663196 -1.81762
lowerneck -18.554 -5.83974 -12.7464
upperneck -1.68427 -5.96104 17.092
head 3.47994 -2.23076 6.96089
rclavicle -3.97569e-015 9.93923e-016
rhumerus 39.989 46.0522 10.9904
rradius 106.149
rwrist -37.2071
rhand -30.4162 14.4957
rfingers 7.12502
rthumb -3.71936 -15.4516
lclavicle -3.97569e-015 9.93923e-016
lhumerus 34.8748 -40.0067 -7.64822
lradius 103.726
lwrist 21.2221
lhand -34.4155 -350.49
lfingers 7.12502
lthumb -7.58065 -680.646
rfemur -18.0531 -0.00755582 19.7321
rtibia 52.761
rfoot -20.7783 -3.64807
rtoes -26.0796
lfemur -19.6686 2.39424 -22.5573
ltibia 60.3674
lfoot -0.494665 -4.98974
ltoes 0.20976
3613
root 4.47262 11.5463 6.73722 60.0268 -1.8549 -1.66668
lowerback 22.4836 -0.603245 -1.37027
upperback 3.71626 -1.35253 -2.69077
thorax -8.51404 -0.633395 -1.76863
lowerneck -18.6121 -5.81599 -12.5262
upperneck -1.72431 -5.95158 16.8481
head 3.4554 -2.2347 6.84325
rclavicle -4.77083e-015 1.09332e-014
rhumerus 39.801 46.2858 10.4464
rradius 107.134
rwrist -37.1586
rhand -30.8309 14.6084
rfingers 7.12502
rthumb -4.11981 -15.3315
lclavicle -4.77083e-015 1.09332e-014
lhumerus 35.0213 -40.3534 -7.16682
lradius 104.809
lwrist 21.0687
lhand -34.6655 -350.308
lfingers 7.12502
lthumb -7.8219 -680.473
rfemur -18.1346 0.413341 19.7506
rtibia 52.9957
rfoot -20.6302 -3.73732
rtoes -26.2362
lfemur -19.982 2.47667 -22.4966
ltibia 61.149
lfoot -0.339049 -5.21971
ltoes -0.154457
3614
root 4.47645 11.5355 6.7326 59.5247 -1.86208 -1.66894
lowerback 22.5435 -0.535075 -1.42588
upperback 3.66727 -1.27864 -2.65524
thorax -8.59612 -0.596699 -1.71949
lowerneck -18.6374 -5.78489 -12.2835
upperneck -1.7784 -5.93811 16.5852
head 3.4195 -2.23929 6.71649
rclavicle -7.95139e-015 -1.43125e-014
rhumerus 39.4983 46.4961 9.8171
rradius 108.112
rwrist -37.0759
rhand -31.2511 14.7465
rfingers 7.12502
rthumb -4.52562 -15.1851
lclavicle -7.95139e-015 -1.43125e-014
lhumerus 35.1886 -40.7296 -6.66568
lradius 105.855
lwrist 20.796
lhand -35.0657 -350.057
lfingers 7.12502
lthumb -8.20821 -680.237
rfemur -18.2643 0.82571 19.7725
rtibia 53.202
rfoot -20.5188 -3.77476
rtoes -26.4434
lfemur -20.3623 2.59267 -22.4352
ltibia 61.9551
lfoot -0.198188 -5.49613
ltoes -0.554211
3615
root 4.4801 11.5246 6.73203 59.0644 -1.86583 -1.68737
lowerback 22.5515 -0.458922 -1.47776
upperback 3.60755 -1.19222 -2.61648
thorax -8.66255 -0.554286 -1.67283
lowerneck -18.6507 -5.74972 -12.0303
upperneck -1.82952 -5.92276 16.3143
head 3.38183 -2.2438 6.58598
rclavicle 2.54444e-014 2.74323e-014
rhumerus 39.1019 46.6997 9.09748
rradius 109.076
rwrist -36.965
rhand -31.6725 14.8668
rfingers 7.12502
rthumb -4.93253 -15.0558
lclavicle 2.54444e-014 2.74323e-014
lhumerus 35.3561 -41.1285 -6.14905
lradius 106.856
lwrist 20.367
lhand -35.6265 -349.781
lfingers 7.12502
lthumb -8.74935 -679.983
rfemur -18.4337 1.17755 19.8018
rtibia 53.3475
rfoot -20.4208 -3.74666
rtoes -26.6866
lfemur -20.7928 2.74628 -22.3575
ltibia 62.7538
lfoot -0.213148 -5.85781
ltoes -1.65523
3616
root 4.48339 11.5148 6.73943 58.6488 -1.89773 -1.73568
lowerback 22.51 -0.367251 -1.54693
upperback 3.52837 -1.08999 -2.58563
thorax -8.72412 -0.504162 -1.62978
lowerneck -18.6448 -5.71048 -11.7845
upperneck -1.87234 -5.90434 16.064
head 3.34486 -2.24653 6.46434
rclavicle -5.56597e-015 -4.37326e-015
rhumerus 38.6411 46.9301 8.27777
rradius 110.017
rwrist -36.8599
rhand -32.0978 14.9172
rfingers 7.12502
rthumb -5.34318 -14.9955
lclavicle -5.56597e-015 -4.37326e-015
lhumerus 35.5119 -41.556 -5.62781
lradius 107.818
lwrist 19.8292
lhand -36.3089 -349.54
lfingers 7.12502
lthumb -9.40784 -679.77
rfemur -18.6401 1.35324 19.7938
rtibia 53.4081
rfoot -20.2901 -3.64843
rtoes -27.1073
lfemur -21.2479 2.91114 -22.2976
ltibia 63.5117
lfoot -0.412381 -6.26159
ltoes -3.74532
3617
root 4.48674 11.5046 6.74983 58.2443 -1.94056 -1.78573
lowerback 22.4545 -0.279332 -1.6158
upperback 3.44521 -0.993096 -2.56512
thorax -8.78327 -0.456638 -1.59673
lowerneck -18.6545 -5.67137 -11.5541
upperneck -1.89298 -5.88528 15.8443
head 3.31913 -2.24649 6.35551
rclavicle -2.38542e-015 -1.80894e-014
rhumerus 38.1484 47.1891 7.37634
rradius 110.921
rwrist -36.7504
rhand -32.5575 14.9073
rfingers 7.12502
rthumb -5.78701 -14.9937
lclavicle -2.38542e-015 -1.80894e-014
lhumerus 35.6346 -41.9747 -5.08875
lradius 108.753
lwrist 19.2425
lhand -37.0086 -349.346
lfingers 7.12502
lthumb -10.0829 -679.608
rfemur -18.8436 1.49281 19.7774
rtibia 53.3912
rfoot -20.1694 -3.52651
rtoes -27.5192
lfemur -21.7038 3.03627 -22.2596
ltibia 64.2417
lfoot -0.75717 -6.68834
ltoes -6.61889
3618
root 4.49011 11.4948 6.76419 57.8534 -1.98475 -1.84101
lowerback 22.3887 -0.199974 -1.66257
upperback 3.35626 -0.903729 -2.56456
thorax -8.84446 -0.413607 -1.5961
lowerneck -18.6791 -5.63713 -11.3273
upperneck -1.89364 -5.87533 15.6694
head 3.30562 -2.24812 6.26108
rclavicle 7.95139e-016 9.93923e-015
rhumerus 37.6272 47.4403 6.43017
rradius 111.819
rwrist -36.7029
rhand -33.0618 14.879
rfingers 7.12502
rthumb -6.27386 -15.0081
lclavicle 7.95139e-016 9.93923e-015
lhumerus 35.7203 -42.3383 -4.5206
lradius 109.708
lwrist 18.8491
lhand -37.4832 -349.249
lfingers 7.12502
lthumb -10.5408 -679.533
rfemur -19.0412 1.60222 19.7648
rtibia 53.2949
rfoot -20.0166 -3.40723
rtoes -27.95
lfemur -22.1653 3.16318 -22.223
ltibia 64.9458
lfoot -1.11124 -7.18094
ltoes -9.95287
3619
root 4.49359 11.4859 6.78326 57.473 -2.00964 -1.89106
lowerback 22.3233 -0.139771 -1.67332
upperback 3.25946 -0.831972 -2.57765
thorax -8.91568 -0.380136 -1.62601
lowerneck -18.7036 -5.60089 -11.0995
upperneck -1.87654 -5.86605 15.5171
head 3.29883 -2.24877 6.17386
rclavicle 1.59028e-015 9.93923e-016
rhumerus 37.1117 47.6964 5.46589
rradius 112.697
rwrist -36.7077
rhand -33.6206 14.8319
rfingers 7.12502
rthumb -6.81335 -15.0384
lclavicle 1.59028e-015 9.93923e-016
lhumerus 35.7547 -42.6449 -3.91445
lradius 110.688
lwrist 18.6753
lhand -37.7001 -349.247
lfingers 7.12502
lthumb -10.75 -679.542
rfemur -19.2279 1.66624 19.7681
rtibia 53.1235
rfoot -19.8054 -3.29931
rtoes -28.4224
lfemur -22.6299 3.27506 -22.1749
ltibia 65.6323
lfoot -1.36819 -7.70808
ltoes -13.0814
3620
root 4.49734 11.4775 6.80482 57.0986 -2.00067 -1.93496
lowerback 22.2685 -0.102383 -1.63536
upperback 3.15415 -0.779385 -2.59863
thorax -9.00315 -0.357359 -1.68705
lowerneck -18.7197 -5.562 -10.8697
upperneck -1.8452 -5.85656 15.3776
head 3.29576 -2.24882 6.09062
rclavicle 8.74653e-015 -1.78906e-015
rhumerus 36.6084 47.9607 4.48746
rradius 113.545
rwrist -36.7574
rhand -34.2238 14.7743
rfingers 7.12502
rthumb -7.39564 -15.0764
lclavicle 8.74653e-015 -1.78906e-015
lhumerus 35.7463 -42.9201 -3.28107
lradius 111.664
lwrist 18.562
lhand -37.7798 -349.27
lfingers 7.12502
lthumb -10.8269 -679.569
rfemur -19.4052 1.69154 19.8014
rtibia 52.8899
rfoot -19.5583 -3.16502
rtoes -28.9564
lfemur -23.1035 3.37926 -22.0995
ltibia 66.3155
lfoot -1.41091 -8.24933
ltoes -15.5062
3621
root 4.50129 11.471 6.82974 56.7413 -1.94442 -1.95682
lowerback 22.2228 -0.0943054 -1.55011
upperback 3.03758 -0.753866 -2.61975
thorax -9.10905 -0.348903 -1.76765
lowerneck -18.7383 -5.52276 -10.6379
upperneck -1.79437 -5.84895 15.2397
head 3.29929 -2.24923 6.00742
rclavicle -1.19271e-014 -1.19271e-015
rhumerus 36.123 48.2208 3.5047
rradius 114.361
rwrist -36.8395
rhand -34.8485 14.7101
rfingers 7.12502
rthumb -7.99856 -15.1185
lclavicle -1.19271e-014 -1.19271e-015
lhumerus 35.694 -43.1787 -2.62244
lradius 112.613
lwrist 18.3672
lhand -37.8157 -349.238
lfingers 7.12502
lthumb -10.8616 -679.539
rfemur -19.5909 1.66278 19.8664
rtibia 52.6206
rfoot -19.2452 -3.01701
rtoes -29.4667
lfemur -23.6049 3.49354 -21.9877
ltibia 67.0029
lfoot -1.23456 -8.78916
ltoes -17.0635
3622
root 4.50542 11.4658 6.85634 56.3992 -1.87271 -1.98766
lowerback 22.1798 -0.0991004 -1.45023
upperback 2.91273 -0.740963 -2.63319
thorax -9.22588 -0.346919 -1.84467
lowerneck -18.7616 -5.48263 -10.4198
upperneck -1.72419 -5.83858 15.0983
head 3.30921 -2.24775 5.92567
rclavicle 3.97569e-015 6.16232e-015
rhumerus 35.6731 48.4641 2.53178
rradius 115.136
rwrist -36.927
rhand -35.456 14.6237
rfingers 7.12502
rthumb -8.58486 -15.1818
lclavicle 3.97569e-015 6.16232e-015
lhumerus 35.5737 -43.4381 -1.9268
lradius 113.5
lwrist 17.9584
lhand -37.9728 -349.148
lfingers 7.12502
lthumb -11.013 -679.457
rfemur -19.8 1.61175 19.9523
rtibia 52.3842
rfoot -18.8223 -2.83251
rtoes -29.9238
lfemur -24.1326 3.62498 -21.856
ltibia 67.711
lfoot -0.871067 -9.24748
ltoes -17.6385
